# xmcd
#
# Track frame offsets:
#	150
#	12120
#	27682
#	39005
#	52080
#	62832
#	77830
#	90232
#	100985
#	115460
#	124005
#	138492
#	150515
#	165587
#	179050
#	189535
#	201072
#	213207
#	227722
#	242190
#	258747
#	269812
#	282550
#	294027
#	316192
#
# Disc length: 4666 seconds
#
# Revision: 0
# Processed by: cddbd v1.5.1PL2 Copyright (c) Steve Scherf et al.
# Submitted via: audiograbber 1.83.01
#
DISCID=6c123819
DTITLE=Nelson Riddle - Sea of dreams - Love tide
DYEAR=2004
DGENRE=
TTITLE0=Out of the night
TTITLE1=My isle of golden dreams
TTITLE2=Tangi Tahiti
TTITLE3=Dream
TTITLE4=There's no you
TTITLE5=Drifting and dreaming
TTITLE6=Easter Isle
TTITLE7=Let's fall in love
TTITLE8=Polka Dots and Moonbeams
TTITLE9=Put your dreams away (For another day)
TTITLE10=Autumn leaves
TTITLE11=Sea of dreams
TTITLE12=Bali Ha'i
TTITLE13=Ill wind
TTITLE14=East of the sun
TTITLE15=Till the end of time
TTITLE16=Caravan
TTITLE17=Sweet Leilani
TTITLE18=Take me in your arms
TTITLE19=Solitude
TTITLE20=Santana
TTITLE21=Honeysuckle rose
TTITLE22=Hold me, thrill me, kiss me
TTITLE23=Love tide
TTITLE24=Data Track
EXTD=
EXTT0=
EXTT1=
EXTT2=
EXTT3=
EXTT4=
EXTT5=
EXTT6=
EXTT7=
EXTT8=
EXTT9=
EXTT10=
EXTT11=
EXTT12=
EXTT13=
EXTT14=
EXTT15=
EXTT16=
EXTT17=
EXTT18=
EXTT19=
EXTT20=
EXTT21=
EXTT22=
EXTT23=
EXTT24=
PLAYORDER=
